<mxfile host="app.diagrams.net" modified="2023-07-08T13:25:03.962Z" agent="Mozilla/5.0 (Windows NT 10.0; Win64; x64) AppleWebKit/537.36 (KHTML, like Gecko) Chrome/112.0.0.0 YaBrowser/23.5.4.674 Yowser/2.5 Safari/537.36" etag="z4PSJZ4zX37j6M1zUDdO" version="21.6.1" type="device">
  <diagram name="Страница 1" id="QSGzHyAYKuUXV2G_H49C">
    <mxGraphModel dx="789" dy="531" grid="1" gridSize="10" guides="1" tooltips="1" connect="1" arrows="1" fold="1" page="1" pageScale="1" pageWidth="827" pageHeight="1169" math="0" shadow="0">
      <root>
        <mxCell id="0" />
        <mxCell id="1" parent="0" />
        <mxCell id="NiwL2CPSK8L10QNwkiNm-19" value="" style="endArrow=classic;html=1;rounded=0;exitX=0.575;exitY=0;exitDx=0;exitDy=0;entryX=1;entryY=1;entryDx=0;entryDy=0;exitPerimeter=0;" parent="1" source="NiwL2CPSK8L10QNwkiNm-60" target="NiwL2CPSK8L10QNwkiNm-39" edge="1">
          <mxGeometry relative="1" as="geometry">
            <mxPoint x="399" y="253" as="sourcePoint" />
            <mxPoint x="357" y="201" as="targetPoint" />
          </mxGeometry>
        </mxCell>
        <mxCell id="NiwL2CPSK8L10QNwkiNm-20" value="extends" style="edgeLabel;resizable=0;html=1;align=center;verticalAlign=middle;" parent="NiwL2CPSK8L10QNwkiNm-19" connectable="0" vertex="1">
          <mxGeometry relative="1" as="geometry" />
        </mxCell>
        <mxCell id="NiwL2CPSK8L10QNwkiNm-21" value="" style="endArrow=classic;html=1;rounded=0;entryX=0.5;entryY=1;entryDx=0;entryDy=0;exitX=0.5;exitY=0;exitDx=0;exitDy=0;" parent="1" source="NiwL2CPSK8L10QNwkiNm-64" target="NiwL2CPSK8L10QNwkiNm-39" edge="1">
          <mxGeometry relative="1" as="geometry">
            <mxPoint x="280" y="260" as="sourcePoint" />
            <mxPoint x="297" y="201" as="targetPoint" />
          </mxGeometry>
        </mxCell>
        <mxCell id="NiwL2CPSK8L10QNwkiNm-22" value="extends" style="edgeLabel;resizable=0;html=1;align=center;verticalAlign=middle;" parent="NiwL2CPSK8L10QNwkiNm-21" connectable="0" vertex="1">
          <mxGeometry relative="1" as="geometry" />
        </mxCell>
        <mxCell id="NiwL2CPSK8L10QNwkiNm-23" value="" style="endArrow=classic;html=1;rounded=0;exitX=0.5;exitY=0;exitDx=0;exitDy=0;entryX=0;entryY=1;entryDx=0;entryDy=0;" parent="1" source="NiwL2CPSK8L10QNwkiNm-52" target="NiwL2CPSK8L10QNwkiNm-39" edge="1">
          <mxGeometry relative="1" as="geometry">
            <mxPoint x="197" y="253" as="sourcePoint" />
            <mxPoint x="237" y="201" as="targetPoint" />
          </mxGeometry>
        </mxCell>
        <mxCell id="NiwL2CPSK8L10QNwkiNm-24" value="extends" style="edgeLabel;resizable=0;html=1;align=center;verticalAlign=middle;" parent="NiwL2CPSK8L10QNwkiNm-23" connectable="0" vertex="1">
          <mxGeometry relative="1" as="geometry" />
        </mxCell>
        <mxCell id="NiwL2CPSK8L10QNwkiNm-25" value="" style="endArrow=classic;html=1;rounded=0;exitX=0.5;exitY=0;exitDx=0;exitDy=0;entryX=0;entryY=1;entryDx=0;entryDy=0;" parent="1" source="NiwL2CPSK8L10QNwkiNm-69" target="NiwL2CPSK8L10QNwkiNm-48" edge="1">
          <mxGeometry relative="1" as="geometry">
            <mxPoint x="519.5" y="252" as="sourcePoint" />
            <mxPoint x="561" y="200" as="targetPoint" />
          </mxGeometry>
        </mxCell>
        <mxCell id="NiwL2CPSK8L10QNwkiNm-26" value="extends" style="edgeLabel;resizable=0;html=1;align=center;verticalAlign=middle;" parent="NiwL2CPSK8L10QNwkiNm-25" connectable="0" vertex="1">
          <mxGeometry relative="1" as="geometry" />
        </mxCell>
        <mxCell id="NiwL2CPSK8L10QNwkiNm-27" value="" style="endArrow=classic;html=1;rounded=0;exitX=0.5;exitY=0;exitDx=0;exitDy=0;entryX=0.5;entryY=1;entryDx=0;entryDy=0;" parent="1" source="NiwL2CPSK8L10QNwkiNm-73" target="NiwL2CPSK8L10QNwkiNm-48" edge="1">
          <mxGeometry relative="1" as="geometry">
            <mxPoint x="620.5" y="252" as="sourcePoint" />
            <mxPoint x="621" y="200" as="targetPoint" />
          </mxGeometry>
        </mxCell>
        <mxCell id="NiwL2CPSK8L10QNwkiNm-28" value="extends" style="edgeLabel;resizable=0;html=1;align=center;verticalAlign=middle;" parent="NiwL2CPSK8L10QNwkiNm-27" connectable="0" vertex="1">
          <mxGeometry relative="1" as="geometry" />
        </mxCell>
        <mxCell id="NiwL2CPSK8L10QNwkiNm-31" value="" style="endArrow=classic;html=1;rounded=0;entryX=0;entryY=0.5;entryDx=0;entryDy=0;exitX=1;exitY=0;exitDx=0;exitDy=0;" parent="1" source="NiwL2CPSK8L10QNwkiNm-39" target="NiwL2CPSK8L10QNwkiNm-35" edge="1">
          <mxGeometry relative="1" as="geometry">
            <mxPoint x="260" y="90" as="sourcePoint" />
            <mxPoint x="400" y="101" as="targetPoint" />
          </mxGeometry>
        </mxCell>
        <mxCell id="NiwL2CPSK8L10QNwkiNm-32" value="extends" style="edgeLabel;resizable=0;html=1;align=center;verticalAlign=middle;" parent="NiwL2CPSK8L10QNwkiNm-31" connectable="0" vertex="1">
          <mxGeometry relative="1" as="geometry" />
        </mxCell>
        <mxCell id="NiwL2CPSK8L10QNwkiNm-33" value="" style="endArrow=classic;html=1;rounded=0;entryX=1;entryY=0.5;entryDx=0;entryDy=0;exitX=0;exitY=0;exitDx=0;exitDy=0;" parent="1" source="NiwL2CPSK8L10QNwkiNm-48" target="NiwL2CPSK8L10QNwkiNm-35" edge="1">
          <mxGeometry relative="1" as="geometry">
            <mxPoint x="650" y="90" as="sourcePoint" />
            <mxPoint x="520" y="101" as="targetPoint" />
          </mxGeometry>
        </mxCell>
        <mxCell id="NiwL2CPSK8L10QNwkiNm-34" value="extends" style="edgeLabel;resizable=0;html=1;align=center;verticalAlign=middle;" parent="NiwL2CPSK8L10QNwkiNm-33" connectable="0" vertex="1">
          <mxGeometry relative="1" as="geometry" />
        </mxCell>
        <mxCell id="NiwL2CPSK8L10QNwkiNm-35" value="Class Animals" style="swimlane;fontStyle=0;childLayout=stackLayout;horizontal=1;startSize=26;fillColor=none;horizontalStack=0;resizeParent=1;resizeParentMax=0;resizeLast=0;collapsible=1;marginBottom=0;whiteSpace=wrap;html=1;" parent="1" vertex="1" collapsed="1">
          <mxGeometry x="400" y="50" width="120" height="30" as="geometry">
            <mxRectangle x="400" y="50" width="110" height="102" as="alternateBounds" />
          </mxGeometry>
        </mxCell>
        <mxCell id="NiwL2CPSK8L10QNwkiNm-36" value="id: int" style="text;strokeColor=none;fillColor=none;align=left;verticalAlign=top;spacingLeft=4;spacingRight=4;overflow=hidden;rotatable=0;points=[[0,0.5],[1,0.5]];portConstraint=eastwest;whiteSpace=wrap;html=1;" parent="NiwL2CPSK8L10QNwkiNm-35" vertex="1">
          <mxGeometry y="26" width="110" height="24" as="geometry" />
        </mxCell>
        <mxCell id="NiwL2CPSK8L10QNwkiNm-37" value="birthdate: String" style="text;strokeColor=none;fillColor=none;align=left;verticalAlign=top;spacingLeft=4;spacingRight=4;overflow=hidden;rotatable=0;points=[[0,0.5],[1,0.5]];portConstraint=eastwest;whiteSpace=wrap;html=1;" parent="NiwL2CPSK8L10QNwkiNm-35" vertex="1">
          <mxGeometry y="50" width="110" height="26" as="geometry" />
        </mxCell>
        <mxCell id="NiwL2CPSK8L10QNwkiNm-38" value="name: String" style="text;strokeColor=none;fillColor=none;align=left;verticalAlign=top;spacingLeft=4;spacingRight=4;overflow=hidden;rotatable=0;points=[[0,0.5],[1,0.5]];portConstraint=eastwest;whiteSpace=wrap;html=1;" parent="NiwL2CPSK8L10QNwkiNm-35" vertex="1">
          <mxGeometry y="76" width="110" height="26" as="geometry" />
        </mxCell>
        <mxCell id="NiwL2CPSK8L10QNwkiNm-39" value="Class Pets" style="swimlane;fontStyle=0;childLayout=stackLayout;horizontal=1;startSize=26;fillColor=none;horizontalStack=0;resizeParent=1;resizeParentMax=0;resizeLast=0;collapsible=1;marginBottom=0;whiteSpace=wrap;html=1;" parent="1" vertex="1" collapsed="1">
          <mxGeometry x="220" y="120" width="140.5" height="30" as="geometry">
            <mxRectangle x="220" y="120" width="140" height="52" as="alternateBounds" />
          </mxGeometry>
        </mxCell>
        <mxCell id="NiwL2CPSK8L10QNwkiNm-40" value="breed; String" style="text;strokeColor=none;fillColor=none;align=left;verticalAlign=top;spacingLeft=4;spacingRight=4;overflow=hidden;rotatable=0;points=[[0,0.5],[1,0.5]];portConstraint=eastwest;whiteSpace=wrap;html=1;" parent="NiwL2CPSK8L10QNwkiNm-39" vertex="1">
          <mxGeometry y="26" width="140" height="26" as="geometry" />
        </mxCell>
        <mxCell id="NiwL2CPSK8L10QNwkiNm-48" value="Class PackAnimals" style="swimlane;fontStyle=0;childLayout=stackLayout;horizontal=1;startSize=26;fillColor=none;horizontalStack=0;resizeParent=1;resizeParentMax=0;resizeLast=0;collapsible=1;marginBottom=0;whiteSpace=wrap;html=1;" parent="1" vertex="1" collapsed="1">
          <mxGeometry x="560" y="120" width="140" height="30" as="geometry">
            <mxRectangle x="560" y="120" width="140" height="52" as="alternateBounds" />
          </mxGeometry>
        </mxCell>
        <mxCell id="NiwL2CPSK8L10QNwkiNm-49" value="loadCapacity: int" style="text;strokeColor=none;fillColor=none;align=left;verticalAlign=top;spacingLeft=4;spacingRight=4;overflow=hidden;rotatable=0;points=[[0,0.5],[1,0.5]];portConstraint=eastwest;whiteSpace=wrap;html=1;" parent="NiwL2CPSK8L10QNwkiNm-48" vertex="1">
          <mxGeometry y="26" width="140" height="26" as="geometry" />
        </mxCell>
        <mxCell id="NiwL2CPSK8L10QNwkiNm-52" value="Class Dogs" style="swimlane;fontStyle=0;childLayout=stackLayout;horizontal=1;startSize=26;fillColor=none;horizontalStack=0;resizeParent=1;resizeParentMax=0;resizeLast=0;collapsible=1;marginBottom=0;whiteSpace=wrap;html=1;" parent="1" vertex="1" collapsed="1">
          <mxGeometry x="110" y="200" width="100" height="30" as="geometry">
            <mxRectangle x="197" y="340" width="140" height="104" as="alternateBounds" />
          </mxGeometry>
        </mxCell>
        <mxCell id="NiwL2CPSK8L10QNwkiNm-53" value="+ field: type" style="text;strokeColor=none;fillColor=none;align=left;verticalAlign=top;spacingLeft=4;spacingRight=4;overflow=hidden;rotatable=0;points=[[0,0.5],[1,0.5]];portConstraint=eastwest;whiteSpace=wrap;html=1;" parent="NiwL2CPSK8L10QNwkiNm-52" vertex="1">
          <mxGeometry y="26" width="140" height="26" as="geometry" />
        </mxCell>
        <mxCell id="NiwL2CPSK8L10QNwkiNm-54" value="+ field: type" style="text;strokeColor=none;fillColor=none;align=left;verticalAlign=top;spacingLeft=4;spacingRight=4;overflow=hidden;rotatable=0;points=[[0,0.5],[1,0.5]];portConstraint=eastwest;whiteSpace=wrap;html=1;" parent="NiwL2CPSK8L10QNwkiNm-52" vertex="1">
          <mxGeometry y="52" width="140" height="26" as="geometry" />
        </mxCell>
        <mxCell id="NiwL2CPSK8L10QNwkiNm-55" value="+ field: type" style="text;strokeColor=none;fillColor=none;align=left;verticalAlign=top;spacingLeft=4;spacingRight=4;overflow=hidden;rotatable=0;points=[[0,0.5],[1,0.5]];portConstraint=eastwest;whiteSpace=wrap;html=1;" parent="NiwL2CPSK8L10QNwkiNm-52" vertex="1">
          <mxGeometry y="78" width="140" height="26" as="geometry" />
        </mxCell>
        <mxCell id="NiwL2CPSK8L10QNwkiNm-60" value="Class Hamsters" style="swimlane;fontStyle=0;childLayout=stackLayout;horizontal=1;startSize=26;fillColor=none;horizontalStack=0;resizeParent=1;resizeParentMax=0;resizeLast=0;collapsible=1;marginBottom=0;whiteSpace=wrap;html=1;" parent="1" vertex="1" collapsed="1">
          <mxGeometry x="330" y="200" width="110" height="30" as="geometry">
            <mxRectangle x="420" y="140" width="140" height="104" as="alternateBounds" />
          </mxGeometry>
        </mxCell>
        <mxCell id="NiwL2CPSK8L10QNwkiNm-61" value="+ field: type" style="text;strokeColor=none;fillColor=none;align=left;verticalAlign=top;spacingLeft=4;spacingRight=4;overflow=hidden;rotatable=0;points=[[0,0.5],[1,0.5]];portConstraint=eastwest;whiteSpace=wrap;html=1;" parent="NiwL2CPSK8L10QNwkiNm-60" vertex="1">
          <mxGeometry y="26" width="140" height="26" as="geometry" />
        </mxCell>
        <mxCell id="NiwL2CPSK8L10QNwkiNm-62" value="+ field: type" style="text;strokeColor=none;fillColor=none;align=left;verticalAlign=top;spacingLeft=4;spacingRight=4;overflow=hidden;rotatable=0;points=[[0,0.5],[1,0.5]];portConstraint=eastwest;whiteSpace=wrap;html=1;" parent="NiwL2CPSK8L10QNwkiNm-60" vertex="1">
          <mxGeometry y="52" width="140" height="26" as="geometry" />
        </mxCell>
        <mxCell id="NiwL2CPSK8L10QNwkiNm-63" value="+ field: type" style="text;strokeColor=none;fillColor=none;align=left;verticalAlign=top;spacingLeft=4;spacingRight=4;overflow=hidden;rotatable=0;points=[[0,0.5],[1,0.5]];portConstraint=eastwest;whiteSpace=wrap;html=1;" parent="NiwL2CPSK8L10QNwkiNm-60" vertex="1">
          <mxGeometry y="78" width="140" height="26" as="geometry" />
        </mxCell>
        <mxCell id="NiwL2CPSK8L10QNwkiNm-64" value="Class Cats" style="swimlane;fontStyle=0;childLayout=stackLayout;horizontal=1;startSize=26;fillColor=none;horizontalStack=0;resizeParent=1;resizeParentMax=0;resizeLast=0;collapsible=1;marginBottom=0;whiteSpace=wrap;html=1;" parent="1" vertex="1" collapsed="1">
          <mxGeometry x="220" y="200" width="100" height="30" as="geometry">
            <mxRectangle x="220" y="330" width="140" height="104" as="alternateBounds" />
          </mxGeometry>
        </mxCell>
        <mxCell id="NiwL2CPSK8L10QNwkiNm-65" value="+ field: type" style="text;strokeColor=none;fillColor=none;align=left;verticalAlign=top;spacingLeft=4;spacingRight=4;overflow=hidden;rotatable=0;points=[[0,0.5],[1,0.5]];portConstraint=eastwest;whiteSpace=wrap;html=1;" parent="NiwL2CPSK8L10QNwkiNm-64" vertex="1">
          <mxGeometry y="26" width="140" height="26" as="geometry" />
        </mxCell>
        <mxCell id="NiwL2CPSK8L10QNwkiNm-66" value="+ field: type" style="text;strokeColor=none;fillColor=none;align=left;verticalAlign=top;spacingLeft=4;spacingRight=4;overflow=hidden;rotatable=0;points=[[0,0.5],[1,0.5]];portConstraint=eastwest;whiteSpace=wrap;html=1;" parent="NiwL2CPSK8L10QNwkiNm-64" vertex="1">
          <mxGeometry y="52" width="140" height="26" as="geometry" />
        </mxCell>
        <mxCell id="NiwL2CPSK8L10QNwkiNm-67" value="+ field: type" style="text;strokeColor=none;fillColor=none;align=left;verticalAlign=top;spacingLeft=4;spacingRight=4;overflow=hidden;rotatable=0;points=[[0,0.5],[1,0.5]];portConstraint=eastwest;whiteSpace=wrap;html=1;" parent="NiwL2CPSK8L10QNwkiNm-64" vertex="1">
          <mxGeometry y="78" width="140" height="26" as="geometry" />
        </mxCell>
        <mxCell id="NiwL2CPSK8L10QNwkiNm-69" value="Class&amp;nbsp;Horses" style="swimlane;fontStyle=0;childLayout=stackLayout;horizontal=1;startSize=26;fillColor=none;horizontalStack=0;resizeParent=1;resizeParentMax=0;resizeLast=0;collapsible=1;marginBottom=0;whiteSpace=wrap;html=1;" parent="1" vertex="1" collapsed="1">
          <mxGeometry x="470" y="200" width="110" height="30" as="geometry">
            <mxRectangle x="310" y="330" width="140" height="104" as="alternateBounds" />
          </mxGeometry>
        </mxCell>
        <mxCell id="NiwL2CPSK8L10QNwkiNm-70" value="+ field: type" style="text;strokeColor=none;fillColor=none;align=left;verticalAlign=top;spacingLeft=4;spacingRight=4;overflow=hidden;rotatable=0;points=[[0,0.5],[1,0.5]];portConstraint=eastwest;whiteSpace=wrap;html=1;" parent="NiwL2CPSK8L10QNwkiNm-69" vertex="1">
          <mxGeometry y="26" width="140" height="26" as="geometry" />
        </mxCell>
        <mxCell id="NiwL2CPSK8L10QNwkiNm-71" value="+ field: type" style="text;strokeColor=none;fillColor=none;align=left;verticalAlign=top;spacingLeft=4;spacingRight=4;overflow=hidden;rotatable=0;points=[[0,0.5],[1,0.5]];portConstraint=eastwest;whiteSpace=wrap;html=1;" parent="NiwL2CPSK8L10QNwkiNm-69" vertex="1">
          <mxGeometry y="52" width="140" height="26" as="geometry" />
        </mxCell>
        <mxCell id="NiwL2CPSK8L10QNwkiNm-72" value="+ field: type" style="text;strokeColor=none;fillColor=none;align=left;verticalAlign=top;spacingLeft=4;spacingRight=4;overflow=hidden;rotatable=0;points=[[0,0.5],[1,0.5]];portConstraint=eastwest;whiteSpace=wrap;html=1;" parent="NiwL2CPSK8L10QNwkiNm-69" vertex="1">
          <mxGeometry y="78" width="140" height="26" as="geometry" />
        </mxCell>
        <mxCell id="NiwL2CPSK8L10QNwkiNm-77" value="Class Donkeys" style="swimlane;fontStyle=0;childLayout=stackLayout;horizontal=1;startSize=26;fillColor=none;horizontalStack=0;resizeParent=1;resizeParentMax=0;resizeLast=0;collapsible=1;marginBottom=0;whiteSpace=wrap;html=1;" parent="1" vertex="1" collapsed="1">
          <mxGeometry x="710" y="200" width="106" height="30" as="geometry">
            <mxRectangle x="250" y="350" width="140" height="104" as="alternateBounds" />
          </mxGeometry>
        </mxCell>
        <mxCell id="NiwL2CPSK8L10QNwkiNm-78" value="+ field: type" style="text;strokeColor=none;fillColor=none;align=left;verticalAlign=top;spacingLeft=4;spacingRight=4;overflow=hidden;rotatable=0;points=[[0,0.5],[1,0.5]];portConstraint=eastwest;whiteSpace=wrap;html=1;" parent="NiwL2CPSK8L10QNwkiNm-77" vertex="1">
          <mxGeometry y="26" width="140" height="26" as="geometry" />
        </mxCell>
        <mxCell id="NiwL2CPSK8L10QNwkiNm-79" value="+ field: type" style="text;strokeColor=none;fillColor=none;align=left;verticalAlign=top;spacingLeft=4;spacingRight=4;overflow=hidden;rotatable=0;points=[[0,0.5],[1,0.5]];portConstraint=eastwest;whiteSpace=wrap;html=1;" parent="NiwL2CPSK8L10QNwkiNm-77" vertex="1">
          <mxGeometry y="52" width="140" height="26" as="geometry" />
        </mxCell>
        <mxCell id="NiwL2CPSK8L10QNwkiNm-80" value="+ field: type" style="text;strokeColor=none;fillColor=none;align=left;verticalAlign=top;spacingLeft=4;spacingRight=4;overflow=hidden;rotatable=0;points=[[0,0.5],[1,0.5]];portConstraint=eastwest;whiteSpace=wrap;html=1;" parent="NiwL2CPSK8L10QNwkiNm-77" vertex="1">
          <mxGeometry y="78" width="140" height="26" as="geometry" />
        </mxCell>
        <mxCell id="NiwL2CPSK8L10QNwkiNm-81" value="" style="endArrow=classic;html=1;rounded=0;exitX=0.558;exitY=0.027;exitDx=0;exitDy=0;entryX=1;entryY=1;entryDx=0;entryDy=0;exitPerimeter=0;" parent="1" source="NiwL2CPSK8L10QNwkiNm-77" target="NiwL2CPSK8L10QNwkiNm-48" edge="1">
          <mxGeometry relative="1" as="geometry">
            <mxPoint x="721.5" y="251" as="sourcePoint" />
            <mxPoint x="680.5" y="200" as="targetPoint" />
          </mxGeometry>
        </mxCell>
        <mxCell id="NiwL2CPSK8L10QNwkiNm-82" value="extends" style="edgeLabel;resizable=0;html=1;align=center;verticalAlign=middle;" parent="NiwL2CPSK8L10QNwkiNm-81" connectable="0" vertex="1">
          <mxGeometry relative="1" as="geometry" />
        </mxCell>
        <mxCell id="NiwL2CPSK8L10QNwkiNm-73" value="Clac Camels" style="swimlane;fontStyle=0;childLayout=stackLayout;horizontal=1;startSize=26;fillColor=none;horizontalStack=0;resizeParent=1;resizeParentMax=0;resizeLast=0;collapsible=1;marginBottom=0;whiteSpace=wrap;html=1;" parent="1" vertex="1" collapsed="1">
          <mxGeometry x="590" y="200" width="110" height="30" as="geometry">
            <mxRectangle x="230" y="340" width="140" height="104" as="alternateBounds" />
          </mxGeometry>
        </mxCell>
        <mxCell id="NiwL2CPSK8L10QNwkiNm-74" value="+ field: type" style="text;strokeColor=none;fillColor=none;align=left;verticalAlign=top;spacingLeft=4;spacingRight=4;overflow=hidden;rotatable=0;points=[[0,0.5],[1,0.5]];portConstraint=eastwest;whiteSpace=wrap;html=1;" parent="NiwL2CPSK8L10QNwkiNm-73" vertex="1">
          <mxGeometry y="26" width="140" height="26" as="geometry" />
        </mxCell>
        <mxCell id="NiwL2CPSK8L10QNwkiNm-75" value="+ field: type" style="text;strokeColor=none;fillColor=none;align=left;verticalAlign=top;spacingLeft=4;spacingRight=4;overflow=hidden;rotatable=0;points=[[0,0.5],[1,0.5]];portConstraint=eastwest;whiteSpace=wrap;html=1;" parent="NiwL2CPSK8L10QNwkiNm-73" vertex="1">
          <mxGeometry y="52" width="140" height="26" as="geometry" />
        </mxCell>
        <mxCell id="NiwL2CPSK8L10QNwkiNm-76" value="+ field: type" style="text;strokeColor=none;fillColor=none;align=left;verticalAlign=top;spacingLeft=4;spacingRight=4;overflow=hidden;rotatable=0;points=[[0,0.5],[1,0.5]];portConstraint=eastwest;whiteSpace=wrap;html=1;" parent="NiwL2CPSK8L10QNwkiNm-73" vertex="1">
          <mxGeometry y="78" width="140" height="26" as="geometry" />
        </mxCell>
      </root>
    </mxGraphModel>
  </diagram>
</mxfile>
